<svg width="20" height="22" viewBox="0 0 20 22" fill="none" xmlns="http://www.w3.org/2000/svg">
<path d="M9.77023 17.775H17.7152C18.0246 17.7924 18.3333 17.7302 18.6118 17.5944C18.8904 17.4585 19.1295 17.2537 19.3063 16.9992C19.4832 16.7448 19.592 16.4493 19.6222 16.1409C19.6525 15.8325 19.6033 15.5215 19.4792 15.2375C19.0592 13.9682 17.3851 12.4457 17.3851 10.9477C17.3851 7.62268 17.3851 6.74768 15.7471 4.79235C15.2164 4.16361 14.5593 3.65361 13.8186 3.29552L12.9051 2.85219C12.7513 2.76029 12.6186 2.6369 12.5159 2.49012C12.4131 2.34334 12.3426 2.17649 12.3089 2.00052C12.2176 1.40833 11.9045 0.873033 11.433 0.503205C10.9616 0.133377 10.3671 -0.0432966 9.77023 0.00901798C9.18411 -0.026178 8.60592 0.158371 8.14857 0.526622C7.69122 0.894874 7.38756 1.42038 7.2969 2.00052C7.25585 2.1823 7.17531 2.35283 7.06099 2.50002C6.94667 2.6472 6.80137 2.76743 6.6354 2.85219L5.7219 3.29552C4.98157 3.65375 4.3249 4.16374 3.79456 4.79235C2.15773 6.74768 2.15773 7.62268 2.15773 10.9477C2.15773 12.4457 0.559398 13.8154 0.139398 15.1605C-0.113769 15.9737 -0.253769 17.775 1.86606 17.775H9.77023Z" fill="#D6D6D6"/>
<path d="M13.577 17.775C13.5873 18.2778 13.4959 18.7774 13.3082 19.244C13.1206 19.7105 12.8406 20.1343 12.485 20.4899C12.1294 20.8454 11.7056 21.1255 11.2391 21.3131C10.7726 21.5008 10.2729 21.5922 9.77015 21.5819C9.26736 21.5925 8.76761 21.5013 8.30099 21.3138C7.83437 21.1262 7.41053 20.8462 7.05498 20.4905C6.69943 20.1349 6.41952 19.7109 6.23211 19.2443C6.04471 18.7776 5.95367 18.2778 5.96449 17.775" fill="#EBEBEB"/>
</svg>
