<svg width="12" height="13" viewBox="0 0 12 13" fill="none" xmlns="http://www.w3.org/2000/svg">
<path d="M5.61133 7.62895C5.88522 7.11684 6.41166 6.81474 6.71756 6.36158C7.04125 5.88632 6.85984 4.99842 5.94213 4.99842C5.341 4.99842 5.04576 5.47 4.92127 5.86053L4 5.45895C4.25255 4.67421 4.93905 4 5.93858 4C6.77448 4 7.34716 4.39421 7.63883 4.88789C7.88782 5.31158 8.03366 6.10368 7.6495 6.69316C7.22266 7.34526 6.8136 7.54421 6.59307 7.96421C6.50414 8.13368 6.46857 8.24421 6.46857 8.78947H5.44059C5.43704 8.50211 5.39435 8.03421 5.61133 7.62895ZM6.65354 10.2632C6.65354 10.6684 6.33341 11 5.94213 11C5.55086 11 5.23073 10.6684 5.23073 10.2632C5.23073 9.85789 5.55086 9.52632 5.94213 9.52632C6.33341 9.52632 6.65354 9.85789 6.65354 10.2632Z" fill="#525252"/>
<circle cx="6" cy="7.5" r="5" stroke="#525252"/>
</svg>
