<svg width="12" height="11" viewBox="0 0 12 11" fill="none" xmlns="http://www.w3.org/2000/svg">
<path d="M10.9118 1.86267V4.59066H8.18384" stroke="#7A7A7A" stroke-linecap="round" stroke-linejoin="round"/>
<path d="M0.90918 9.13729V6.4093H3.63717" stroke="#7A7A7A" stroke-linecap="round" stroke-linejoin="round"/>
<path d="M2.05039 4.13597C2.28098 3.48434 2.67289 2.90174 3.18954 2.44253C3.70619 1.98333 4.33075 1.66249 5.00493 1.50994C5.67912 1.3574 6.38096 1.37813 7.04497 1.57019C7.70898 1.76226 8.31351 2.1194 8.80216 2.6083L10.9118 4.59064M0.90918 6.4093L3.01883 8.39164C3.50748 8.88053 4.11201 9.23767 4.77602 9.42974C5.44003 9.6218 6.14187 9.64253 6.81606 9.48999C7.49024 9.33745 8.1148 9.0166 8.63145 8.5574C9.1481 8.09819 9.54001 7.51559 9.7706 6.86396" stroke="#7A7A7A" stroke-linecap="round" stroke-linejoin="round"/>
</svg>
